<svg xmlns="http://www.w3.org/2000/svg" width="1024" height="1024" viewBox="0 0 1024 1024">
<g>
<path d="M 554.00 866.46 C540.79,868.01 503.41,869.16 491.50,868.38 C443.98,865.26 399.55,853.38 355.18,831.94 C303.65,807.04 259.74,770.55 225.50,724.16 C187.98,673.32 165.52,617.42 157.34,554.50 C154.65,533.81 154.86,487.31 157.73,466.50 C161.59,438.57 170.01,405.97 179.69,381.50 C188.94,358.11 205.06,328.18 219.77,307.08 C251.81,261.12 296.75,221.76 347.01,195.65 C385.30,175.75 422.28,164.47 471.00,157.81 C483.91,156.05 541.12,156.05 554.00,157.82 C590.99,162.89 615.86,169.14 644.99,180.69 C691.99,199.32 728.01,223.02 763.99,259.01 C800.52,295.53 826.15,334.30 844.31,380.50 C875.57,460.03 878.03,543.51 851.48,623.50 C838.29,663.23 817.48,701.65 791.36,734.50 C780.35,748.36 748.67,780.17 735.50,790.60 C714.45,807.27 691.14,821.75 665.63,834.00 C630.64,850.81 592.28,861.96 554.00,866.46 ZM 474.40 721.63 C482.20,724.53 489.80,724.65 495.07,721.97 C502.46,718.20 512.93,701.21 518.45,684.03 C528.76,651.95 524.97,617.59 506.56,576.25 C504.05,570.61 499.95,561.39 497.43,555.75 C484.42,526.53 479.56,508.49 478.38,485.00 C477.82,473.75 478.86,458.46 480.69,451.11 L 481.29 448.72 L 477.95 450.61 C476.11,451.65 471.12,455.80 466.86,459.83 C446.75,478.86 432.88,509.91 430.01,542.32 C425.34,595.02 438.09,638.07 466.95,667.10 C474.23,674.42 477.06,676.48 486.00,680.94 C491.77,683.82 496.64,686.32 496.82,686.49 C497.48,687.14 490.74,699.35 488.47,701.62 C485.35,704.74 482.32,704.62 475.01,701.08 C465.95,696.70 457.46,690.19 447.92,680.35 C435.09,667.11 426.69,653.64 419.02,634.00 C409.34,609.22 405.55,586.47 406.28,557.50 C407.31,516.38 417.68,484.27 439.08,455.94 C451.10,440.04 470.35,425.83 485.28,421.85 C489.36,420.76 490.45,419.90 492.67,416.03 C494.11,413.54 497.27,408.69 499.69,405.25 L 504.10 399.00 L 500.30 399.01 C490.68,399.02 469.98,406.09 458.50,413.28 C441.84,423.70 424.07,441.87 414.27,458.49 C407.94,469.23 407.16,470.75 402.57,481.28 C388.84,512.81 383.72,549.22 387.84,586.00 C391.86,621.92 403.42,653.57 421.81,679.00 C435.78,698.32 456.18,714.86 474.40,721.63 ZM 522.00 726.52 C520.57,728.24 520.83,728.30 527.50,727.67 C561.01,724.55 595.20,697.64 615.09,658.72 C652.83,584.87 642.74,489.53 591.30,433.96 C571.76,412.85 541.78,398.35 530.20,404.41 C526.64,406.28 522.19,411.13 517.28,418.50 C504.85,437.15 499.24,458.24 500.52,481.50 C501.89,506.19 506.92,522.85 524.97,562.50 C533.11,580.38 539.54,598.74 543.17,614.50 C546.73,629.96 546.80,658.77 543.30,676.23 L 542.73 679.09 L 546.53 676.85 C551.86,673.70 563.64,661.77 569.32,653.74 C571.96,650.03 576.31,642.60 579.00,637.24 C603.65,588.18 600.49,520.03 571.54,476.52 C563.74,464.80 549.65,451.63 539.14,446.25 C534.58,443.91 529.98,442.00 528.92,442.00 C526.29,442.00 526.49,440.74 530.17,433.83 C535.80,423.27 540.68,421.68 551.50,426.89 C566.98,434.34 583.15,450.42 594.23,469.39 C604.10,486.29 609.64,500.85 614.65,523.05 C617.36,535.04 617.46,536.49 617.45,562.50 C617.43,588.04 617.28,590.20 614.70,602.40 C606.95,639.05 591.38,668.21 569.17,687.66 C559.14,696.44 552.82,700.30 541.58,704.53 L 533.53 707.56 L 528.51 716.13 C525.76,720.85 522.83,725.53 522.00,726.52 ZM 442.52 394.75 C442.75,395.44 443.11,396.00 443.32,396.00 C443.53,396.00 448.84,393.58 455.10,390.61 C476.43,380.53 491.31,377.02 512.68,377.01 C534.31,376.99 549.45,380.57 568.35,390.14 C574.86,393.44 580.43,395.90 580.72,395.61 C581.58,394.76 601.00,306.17 601.00,303.11 C601.00,302.53 600.21,302.33 599.25,302.66 C597.99,303.10 553.72,324.74 547.93,327.75 C547.62,327.91 545.76,325.67 543.80,322.77 C519.68,287.11 512.67,277.00 512.07,277.00 C511.68,277.00 503.77,288.45 494.50,302.45 C485.23,316.45 477.39,327.77 477.07,327.62 C476.76,327.47 464.68,321.57 450.24,314.51 C435.80,307.46 423.73,301.93 423.43,302.24 C423.13,302.54 424.05,308.35 425.47,315.14 C432.16,347.00 442.14,393.63 442.52,394.75 ZM 532.63 333.00 L 534.70 336.50 L 523.54 347.20 L 512.37 357.91 L 490.13 335.50 L 500.53 320.00 C506.24,311.48 511.45,304.50 512.10,304.50 C513.17,304.50 527.65,324.61 532.63,333.00 ZM 458.81 372.00 C456.24,373.10 453.99,374.00 453.81,374.00 C453.22,373.99 444.13,329.54 444.62,329.04 C444.90,328.77 449.25,330.64 454.31,333.19 C459.36,335.75 466.42,339.11 470.00,340.67 C474.90,342.80 478.77,345.69 485.75,352.40 C490.84,357.29 495.00,361.59 495.00,361.95 C495.00,362.31 491.58,363.18 487.40,363.89 C478.83,365.33 465.81,369.02 458.81,372.00 ZM 575.36 351.94 C572.69,364.07 570.03,374.00 569.45,374.00 C568.87,374.00 567.97,373.57 567.45,373.05 C565.88,371.49 546.00,365.20 538.50,363.90 C534.65,363.23 531.17,362.40 530.76,362.05 C530.36,361.71 533.73,357.74 538.26,353.24 C545.93,345.62 547.63,344.50 562.88,336.99 C571.89,332.56 579.48,329.15 579.74,329.40 C580.00,329.66 578.03,339.80 575.36,351.94 Z" fill="rgb(41,46,49)"/>
<path d="M 522.00 726.52 C522.83,725.53 525.76,720.85 528.51,716.13 L 533.53 707.56 L 541.58 704.53 C552.82,700.30 559.14,696.44 569.17,687.66 C591.38,668.21 606.95,639.05 614.70,602.40 C617.28,590.20 617.43,588.04 617.45,562.50 C617.45,549.15 617.43,542.27 617.04,537.12 C618.28,545.68 618.98,554.15 619.02,562.00 C619.07,571.70 619.18,572.26 620.43,569.41 C621.17,567.70 622.10,564.78 622.49,562.91 C622.95,560.72 624.84,557.98 627.78,555.25 C632.38,550.97 635.33,549.94 636.42,552.25 C637.88,555.33 636.10,534.06 634.06,522.04 C642.64,566.97 636.73,616.38 615.09,658.72 C595.20,697.64 561.01,724.55 527.50,727.67 C520.83,728.30 520.57,728.24 522.00,726.52 ZM 408.42 595.27 C406.73,585.47 405.60,575.21 405.06,564.50 C404.67,556.80 404.27,552.16 404.18,554.19 C404.08,556.22 403.55,558.16 403.00,558.50 C402.45,558.84 402.00,559.88 402.00,560.81 C401.99,564.94 392.43,580.70 391.65,577.87 C390.13,572.36 389.33,570.61 388.15,570.21 C384.98,569.16 389.52,603.59 395.10,622.98 C397.06,629.76 399.26,636.23 401.73,642.41 C394.78,625.20 390.11,606.28 387.84,586.00 C383.72,549.22 388.84,512.81 402.57,481.28 C407.16,470.75 407.94,469.23 414.27,458.49 C424.07,441.87 441.84,423.70 458.50,413.28 C469.98,406.09 490.68,399.02 500.30,399.01 L 504.10 399.00 L 499.69 405.25 C497.27,408.69 494.11,413.54 492.67,416.03 C490.45,419.90 489.36,420.76 485.28,421.85 C470.35,425.83 451.10,440.04 439.08,455.94 C417.68,484.27 407.31,516.38 406.28,557.50 C405.94,571.19 406.60,583.49 408.42,595.27 ZM 480.00 501.68 C479.57,499.63 479.23,498.74 478.74,498.66 C478.24,498.57 477.59,499.32 476.54,500.54 L 476.47 500.62 C475.11,502.20 473.74,504.29 473.43,505.25 C473.12,506.21 472.50,507.00 472.05,507.00 C471.61,507.00 470.66,508.46 469.94,510.25 C468.49,513.85 459.70,524.97 457.13,526.44 C453.22,528.68 441.00,540.67 441.00,542.28 C441.00,543.88 437.89,547.00 436.29,547.00 C435.53,547.00 434.24,545.42 433.44,543.50 C432.63,541.58 431.59,540.00 431.13,540.00 C430.46,540.00 429.86,543.71 429.48,549.46 C429.62,547.10 429.79,544.72 430.01,542.32 C432.88,509.91 446.75,478.86 466.86,459.83 C471.12,455.80 476.11,451.65 477.95,450.61 L 481.29 448.72 L 480.69 451.11 C478.86,458.46 477.82,473.75 478.38,485.00 C478.67,490.81 479.19,496.28 480.00,501.68 ZM 545.51 628.75 C545.89,632.19 546.60,635.00 547.09,635.00 C547.57,635.00 549.11,633.20 550.50,631.00 C551.89,628.80 553.64,627.00 554.39,627.00 C555.14,627.00 556.31,625.54 556.98,623.75 C559.21,617.83 560.31,616.03 562.63,614.51 C563.90,613.68 566.95,609.91 569.41,606.13 C571.88,602.36 575.30,597.97 577.01,596.39 C578.73,594.80 580.79,592.26 581.59,590.75 C582.39,589.24 583.71,588.00 584.53,588.00 C585.34,588.00 586.00,587.60 586.00,587.12 C586.00,586.63 586.90,586.00 588.00,585.71 C589.30,585.37 590.00,585.68 590.00,586.59 C590.00,587.37 590.45,588.00 591.00,588.00 C591.55,588.00 592.03,589.01 592.07,590.25 C592.10,591.49 592.74,590.25 593.47,587.51 C594.03,585.43 594.49,582.73 594.84,579.64 C593.02,599.94 587.77,619.80 579.00,637.24 C576.31,642.60 571.96,650.03 569.32,653.74 C563.64,661.77 551.86,673.70 546.53,676.85 L 542.73 679.09 L 543.30 676.23 C546.38,660.85 546.70,636.68 544.30,620.57 C544.82,623.42 545.22,626.15 545.51,628.75 ZM 442.52 394.75 C442.14,393.63 432.16,347.00 425.47,315.14 C424.05,308.35 423.13,302.54 423.43,302.24 C423.73,301.93 435.80,307.46 450.24,314.51 C458.35,318.47 465.72,322.07 470.67,324.49 C466.93,322.96 463.71,322.11 464.76,323.16 C465.44,323.84 466.00,326.56 466.00,329.20 C466.00,332.88 465.64,334.00 464.44,334.00 C463.51,334.00 463.17,334.47 463.61,335.17 C464.09,335.96 463.78,336.13 462.66,335.70 C461.75,335.35 461.00,335.27 461.00,335.52 C461.00,335.77 464.71,337.84 469.25,340.12 C470.55,340.77 471.75,341.42 472.91,342.09 C471.96,341.57 471.00,341.10 470.00,340.67 C466.42,339.11 459.36,335.75 454.31,333.19 C449.25,330.64 444.90,328.77 444.62,329.04 C444.13,329.54 453.22,373.99 453.81,374.00 C453.99,374.00 456.24,373.10 458.81,372.00 C462.73,370.34 468.52,368.45 474.36,366.85 C470.16,368.10 466.86,369.42 465.49,370.52 C463.56,372.06 463.57,372.09 466.00,371.49 C467.75,371.05 468.09,371.16 467.12,371.82 C465.35,373.05 466.54,375.00 469.06,375.00 C470.13,375.00 471.00,375.45 471.00,376.00 C471.00,376.55 470.58,377.00 470.07,377.00 C469.55,377.00 468.85,377.90 468.50,379.00 C468.15,380.10 467.16,381.00 466.30,381.00 C464.83,381.00 459.69,386.02 460.42,386.75 C460.60,386.94 465.65,385.48 471.63,383.50 C477.13,381.69 482.15,380.31 487.13,379.32 C476.96,381.38 467.05,384.97 455.10,390.61 C448.84,393.58 443.53,396.00 443.32,396.00 C443.11,396.00 442.75,395.44 442.52,394.75 ZM 571.49 416.99 C570.03,416.04 568.57,415.13 567.08,414.28 C557.78,408.91 551.61,406.02 549.50,406.05 C547.75,406.07 547.86,406.37 550.42,408.46 C552.02,409.77 554.79,411.11 556.57,411.45 C558.35,411.78 560.08,412.76 560.41,413.63 C560.75,414.53 561.66,414.96 562.51,414.64 C565.68,413.42 563.81,416.18 560.54,417.55 C556.67,419.16 554.19,422.51 556.26,423.33 C556.94,423.60 555.51,423.65 553.07,423.44 C550.64,423.22 548.19,422.59 547.62,422.02 C546.16,420.56 538.45,420.76 537.17,422.29 C536.32,423.32 536.79,423.51 539.41,423.20 C541.12,423.00 544.29,423.86 547.95,425.35 C539.53,422.18 535.14,424.50 530.17,433.83 C526.49,440.74 526.29,442.00 528.92,442.00 C529.98,442.00 534.58,443.91 539.14,446.25 C540.41,446.90 541.74,447.67 543.09,448.53 C540.64,447.13 538.16,446.02 535.48,445.08 C528.17,442.51 527.65,442.49 531.72,444.97 C536.08,447.63 536.97,451.38 533.86,453.97 C532.56,455.05 530.70,455.95 529.73,455.97 C528.75,455.99 525.58,458.42 522.67,461.37 C519.76,464.33 516.37,467.07 515.13,467.46 C513.28,468.05 512.99,468.67 513.49,470.96 C513.96,473.07 513.67,473.93 512.30,474.50 C509.93,475.50 505.76,475.83 504.50,475.12 C500.43,472.83 500.02,474.30 501.03,487.57 C501.24,490.29 501.50,492.94 501.85,495.56 C501.21,491.03 500.79,486.42 500.52,481.50 C499.24,458.24 504.85,437.15 517.28,418.50 C522.19,411.13 526.64,406.28 530.20,404.41 C538.27,400.18 555.30,405.95 571.49,416.99 ZM 575.36 351.94 C578.03,339.80 580.00,329.66 579.74,329.40 C579.48,329.15 571.89,332.56 562.88,336.99 C547.63,344.50 545.93,345.62 538.26,353.24 C535.91,355.59 533.86,357.78 532.50,359.40 C533.70,357.95 535.55,355.96 538.06,353.43 C544.65,346.80 548.26,344.08 554.50,341.02 C558.90,338.86 563.34,336.42 564.36,335.60 C566.16,334.17 566.14,334.03 563.74,331.81 C561.70,329.91 561.43,329.06 562.19,327.02 C562.80,325.37 562.75,324.42 562.05,324.18 C561.46,323.99 561.24,323.42 561.55,322.91 C562.52,321.35 560.28,321.90 554.28,324.70 C552.35,325.60 550.55,326.45 549.35,327.03 C558.82,322.25 598.07,303.07 599.25,302.66 C600.21,302.33 601.00,302.53 601.00,303.11 C601.00,306.17 581.58,394.76 580.72,395.61 C580.43,395.90 574.86,393.44 568.35,390.14 C558.19,384.99 549.11,381.58 539.53,379.53 C546.24,380.86 552.62,382.86 560.00,385.81 C569.30,389.53 569.40,389.54 566.70,386.58 C565.49,385.24 563.49,382.82 562.27,381.19 C559.75,377.85 560.38,376.70 565.39,375.44 L 568.27 374.71 L 565.89 372.86 C564.55,371.83 560.68,370.23 556.03,368.64 C561.78,370.49 566.70,372.31 567.45,373.05 C567.97,373.57 568.87,374.00 569.45,374.00 C570.03,374.00 572.69,364.07 575.36,351.94 ZM 474.40 721.63 C473.47,721.28 472.54,720.91 471.60,720.52 C475.74,722.19 478.00,722.44 478.00,721.18 C478.00,720.73 476.37,718.59 474.38,716.43 C472.39,714.27 471.11,713.14 471.54,713.92 C472.13,714.98 471.89,715.17 470.58,714.67 C469.62,714.30 467.91,714.00 466.77,714.00 C464.85,714.00 464.89,713.83 467.37,711.54 C469.36,709.69 470.56,709.27 472.17,709.87 C474.32,710.66 478.38,709.62 482.87,707.12 C485.17,705.84 485.02,705.70 478.02,702.51 C477.52,702.28 476.97,702.02 476.39,701.74 C482.71,704.62 485.55,704.54 488.47,701.62 C490.74,699.35 497.48,687.14 496.82,686.49 C496.69,686.37 494.08,685.01 490.45,683.18 C491.54,683.64 492.63,684.07 493.74,684.48 C495.81,685.24 497.58,685.89 497.67,685.93 C497.76,685.97 498.55,685.73 499.42,685.39 C500.42,685.01 501.00,683.57 501.00,681.45 C501.00,679.62 501.42,677.86 501.94,677.54 C502.45,677.22 504.04,674.38 505.47,671.23 C506.90,668.08 509.41,664.15 511.04,662.50 C512.67,660.85 514.85,658.39 515.89,657.03 C517.42,655.03 518.05,654.79 519.23,655.77 C520.03,656.44 520.98,656.69 521.34,656.32 C521.70,655.96 522.05,657.20 522.11,659.08 L 522.23 662.50 L 523.06 658.50 C523.51,656.30 523.91,649.87 523.94,644.22 C523.95,643.27 523.94,642.29 523.91,641.30 C524.69,656.20 522.85,670.33 518.45,684.03 C512.93,701.21 502.46,718.20 495.07,721.97 C489.80,724.65 482.20,724.53 474.40,721.63 ZM 476.00 706.86 C476.00,708.72 473.25,708.77 471.69,706.95 C470.80,705.91 470.40,704.88 470.79,704.65 C471.85,704.03 476.00,705.79 476.00,706.86 ZM 477.13 327.60 C477.89,327.05 485.52,316.02 494.48,302.49 L 477.66 327.88 ZM 430.17 584.33 C431.97,600.05 435.86,615.55 441.33,628.72 C435.63,615.33 431.89,600.47 430.17,584.33 ZM 417.29 672.41 C423.36,681.61 430.30,689.96 438.15,697.54 C440.70,700.00 443.22,702.27 445.74,704.38 C436.90,697.11 428.60,688.38 421.81,679.00 C420.25,676.85 418.75,674.65 417.29,672.41 ZM 554.46 428.41 C557.24,429.89 560.00,431.57 562.38,433.29 C569.14,438.19 575.43,444.14 581.27,451.13 C573.03,441.44 563.69,433.47 554.46,428.41 ZM 469.51 669.63 C473.47,673.19 477.62,676.27 481.95,678.85 C476.88,676.12 473.97,673.94 469.51,669.63 ZM 559.38 461.93 C564.04,466.61 568.33,471.69 571.54,476.52 C573.21,479.03 574.79,481.61 576.28,484.27 C571.58,476.11 566.04,468.76 559.63,462.19 C559.55,462.10 559.46,462.02 559.38,461.93 ZM 442.65 674.61 C439.61,671.22 437.00,668.02 435.32,665.50 C434.14,663.74 432.99,661.95 431.88,660.13 C435.11,665.24 438.65,669.99 442.65,674.61 ZM 590.08 519.15 C592.47,528.44 594.09,538.08 594.92,547.86 C593.93,537.64 592.32,528.08 590.08,519.15 ZM 519.66 613.52 C516.70,601.74 512.26,589.04 506.56,576.25 C512.39,589.32 516.75,601.69 519.66,613.52 ZM 491.82 358.39 C490.19,356.73 488.07,354.62 485.75,352.40 C482.75,349.51 480.32,347.33 478.14,345.62 C480.62,347.51 483.16,349.79 486.25,352.81 C488.36,354.87 490.30,356.82 491.82,358.39 ZM 540.51 364.30 C539.99,364.19 539.49,364.09 539.00,364.00 C535.42,363.35 531.85,362.62 531.06,362.37 C530.93,362.33 530.86,362.24 530.85,362.11 C531.53,362.48 534.85,363.26 538.50,363.90 C539.10,364.00 539.77,364.14 540.51,364.30 ZM 465.86 695.80 C465.25,695.41 464.67,695.03 464.15,694.67 C462.61,693.62 460.81,692.21 458.87,690.56 C461.22,692.50 463.54,694.23 465.86,695.80 ZM 421.39 639.83 C420.00,636.60 418.69,633.30 417.47,629.92 C417.97,631.28 418.48,632.64 419.02,634.00 C419.80,636.01 420.59,637.95 421.39,639.83 ZM 624.84 489.17 C622.65,483.37 620.20,477.75 617.53,472.34 C620.23,477.79 622.67,483.41 624.84,489.17 ZM 490.52 363.30 C493.10,362.77 494.92,362.24 495.00,361.97 C495.00,361.98 495.00,361.98 495.00,361.99 C495.00,362.24 493.16,362.76 490.52,363.30 Z" fill="rgb(188,155,87)"/>
<path d="M 480.00 501.68 C482.46,518.10 487.64,533.75 497.43,555.75 C499.95,561.39 504.05,570.61 506.56,576.25 C512.26,589.04 516.70,601.73 519.66,613.51 L 519.66 613.52 C522.02,623.11 523.44,632.35 523.91,641.30 C523.94,642.29 523.95,643.27 523.94,644.22 C523.91,649.87 523.51,656.30 523.06,658.50 L 522.23 662.50 L 522.11 659.08 C522.05,657.20 521.70,655.96 521.34,656.32 C520.98,656.69 520.03,656.44 519.23,655.77 C518.05,654.79 517.42,655.03 515.89,657.03 C514.85,658.39 512.67,660.85 511.04,662.50 C509.41,664.15 506.90,668.08 505.47,671.23 C504.04,674.38 502.45,677.22 501.94,677.54 C501.42,677.86 501.00,679.62 501.00,681.45 C501.00,683.57 500.42,685.01 499.42,685.39 C498.55,685.73 497.76,685.97 497.67,685.93 C497.58,685.89 495.81,685.24 493.74,684.48 C492.63,684.07 491.54,683.64 490.45,683.18 C489.09,682.49 487.58,681.73 486.00,680.94 C484.49,680.19 483.16,679.50 481.95,678.85 C477.62,676.27 473.47,673.19 469.51,669.63 C468.71,668.86 467.87,668.02 466.95,667.10 C456.12,656.20 447.56,643.33 441.33,628.72 C435.86,615.55 431.97,600.06 430.17,584.33 L 430.17 584.33 C428.99,573.29 428.75,561.65 429.48,549.46 C429.86,543.71 430.46,540.00 431.13,540.00 C431.59,540.00 432.63,541.58 433.44,543.50 C434.24,545.42 435.53,547.00 436.29,547.00 C437.89,547.00 441.00,543.88 441.00,542.28 C441.00,540.67 453.22,528.68 457.13,526.44 C459.70,524.97 468.49,513.85 469.94,510.25 C470.66,508.46 471.61,507.00 472.05,507.00 C472.50,507.00 473.12,506.21 473.43,505.25 C473.74,504.29 475.11,502.20 476.47,500.62 L 476.54 500.54 C477.59,499.32 478.24,498.57 478.74,498.66 C479.23,498.74 479.57,499.63 480.00,501.68 ZM 545.51 628.75 C545.22,626.15 544.82,623.42 544.30,620.57 C543.97,618.38 543.60,616.35 543.17,614.50 C539.54,598.74 533.11,580.38 524.97,562.50 C510.52,530.76 504.41,513.75 501.85,495.56 C501.50,492.94 501.24,490.29 501.03,487.57 C500.02,474.30 500.43,472.83 504.50,475.12 C505.76,475.83 509.93,475.50 512.30,474.50 C513.67,473.93 513.96,473.07 513.49,470.96 C512.99,468.67 513.28,468.05 515.13,467.46 C516.37,467.07 519.76,464.33 522.67,461.37 C525.58,458.42 528.75,455.99 529.73,455.97 C530.70,455.95 532.56,455.05 533.86,453.97 C536.97,451.38 536.08,447.63 531.72,444.97 C527.65,442.49 528.17,442.51 535.48,445.08 C538.16,446.02 540.64,447.13 543.09,448.53 C548.33,451.85 554.10,456.64 559.38,461.93 C559.46,462.02 559.55,462.10 559.63,462.19 C566.04,468.76 571.58,476.11 576.28,484.27 C582.26,494.90 586.87,506.71 590.08,519.15 L 590.08 519.15 C592.32,528.08 593.93,537.64 594.92,547.86 C595.81,558.39 595.79,569.07 594.84,579.64 C594.49,582.73 594.03,585.43 593.47,587.51 C592.74,590.25 592.10,591.49 592.07,590.25 C592.03,589.01 591.55,588.00 591.00,588.00 C590.45,588.00 590.00,587.37 590.00,586.59 C590.00,585.68 589.30,585.37 588.00,585.71 C586.90,586.00 586.00,586.63 586.00,587.12 C586.00,587.60 585.34,588.00 584.53,588.00 C583.71,588.00 582.39,589.24 581.59,590.75 C580.79,592.26 578.73,594.80 577.01,596.39 C575.30,597.97 571.88,602.36 569.41,606.13 C566.95,609.91 563.90,613.68 562.63,614.51 C560.31,616.03 559.21,617.83 556.98,623.75 C556.31,625.54 555.14,627.00 554.39,627.00 C553.64,627.00 551.89,628.80 550.50,631.00 C549.11,633.20 547.57,635.00 547.09,635.00 C546.60,635.00 545.89,632.19 545.51,628.75 ZM 477.13 327.60 L 477.66 327.88 L 494.46 302.52 L 494.48 302.49 L 494.50 302.45 C503.77,288.45 511.68,277.00 512.07,277.00 C512.67,277.00 519.68,287.11 543.80,322.77 C545.76,325.67 547.62,327.91 547.93,327.75 C548.28,327.57 548.75,327.33 549.35,327.03 C550.55,326.45 552.35,325.60 554.28,324.70 C560.28,321.90 562.52,321.35 561.55,322.91 C561.24,323.42 561.46,323.99 562.05,324.18 C562.75,324.42 562.80,325.37 562.19,327.02 C561.43,329.06 561.70,329.91 563.74,331.81 C566.14,334.03 566.16,334.17 564.36,335.60 C563.34,336.42 558.90,338.86 554.50,341.02 C548.26,344.08 544.65,346.80 538.06,353.43 C535.55,355.96 533.70,357.95 532.50,359.40 L 532.50 359.40 C531.24,360.89 530.57,361.89 530.76,362.05 C530.79,362.07 530.81,362.09 530.85,362.11 C530.86,362.24 530.93,362.33 531.06,362.37 C531.85,362.62 535.42,363.35 539.00,364.00 C539.49,364.09 539.99,364.19 540.51,364.30 C544.63,365.20 550.69,366.93 556.03,368.64 C560.68,370.23 564.55,371.83 565.89,372.86 L 568.27 374.71 L 565.39 375.44 C560.38,376.70 559.75,377.85 562.27,381.19 C563.49,382.82 565.49,385.24 566.70,386.58 C569.40,389.54 569.30,389.53 560.00,385.81 C552.62,382.86 546.24,380.86 539.53,379.53 C531.29,377.76 522.68,377.00 512.68,377.01 C503.27,377.01 495.13,377.69 487.13,379.32 L 487.13 379.32 C482.14,380.31 477.13,381.69 471.63,383.50 C465.65,385.48 460.60,386.94 460.42,386.75 C459.69,386.02 464.83,381.00 466.30,381.00 C467.16,381.00 468.15,380.10 468.50,379.00 C468.85,377.90 469.55,377.00 470.07,377.00 C470.58,377.00 471.00,376.55 471.00,376.00 C471.00,375.45 470.13,375.00 469.06,375.00 C466.54,375.00 465.35,373.05 467.12,371.82 C468.09,371.16 467.75,371.05 466.00,371.49 C463.57,372.09 463.56,372.06 465.49,370.52 C466.86,369.42 470.16,368.10 474.36,366.85 C478.98,365.60 483.62,364.52 487.40,363.89 C488.51,363.70 489.57,363.50 490.52,363.30 C490.52,363.30 490.52,363.30 490.52,363.30 C493.16,362.76 495.00,362.24 495.00,361.99 C495.00,361.98 495.00,361.98 495.00,361.97 C495.00,361.96 495.00,361.96 495.00,361.95 C495.00,361.75 493.76,360.39 491.82,358.39 C490.30,356.82 488.36,354.87 486.25,352.81 C483.16,349.79 480.62,347.51 478.14,345.62 C476.29,344.16 474.61,343.03 472.91,342.09 C471.75,341.42 470.55,340.77 469.25,340.12 C464.71,337.84 461.00,335.77 461.00,335.52 C461.00,335.27 461.75,335.35 462.66,335.70 C463.78,336.13 464.09,335.96 463.61,335.17 C463.17,334.47 463.51,334.00 464.44,334.00 C465.64,334.00 466.00,332.88 466.00,329.20 C466.00,326.56 465.44,323.84 464.76,323.16 C463.71,322.11 466.93,322.96 470.67,324.49 C474.54,326.38 476.94,327.55 477.07,327.62 C477.08,327.63 477.10,327.62 477.13,327.60 ZM 408.42 595.27 C410.24,607.05 413.21,618.31 417.47,629.92 L 417.47 629.93 C418.69,633.30 420.00,636.60 421.39,639.83 L 421.39 639.83 C424.62,647.40 428.03,654.03 431.88,660.13 C432.99,661.95 434.14,663.74 435.32,665.50 C437.00,668.02 439.61,671.22 442.65,674.61 C444.32,676.54 446.07,678.45 447.92,680.35 C451.70,684.26 455.32,687.63 458.87,690.56 C460.81,692.21 462.61,693.62 464.15,694.67 C464.67,695.03 465.25,695.41 465.86,695.80 C468.89,697.84 471.91,699.58 475.01,701.08 C475.49,701.31 475.95,701.53 476.39,701.74 C476.97,702.02 477.52,702.28 478.02,702.51 C485.02,705.70 485.17,705.84 482.87,707.12 C478.38,709.62 474.32,710.66 472.17,709.87 C470.56,709.27 469.36,709.69 467.37,711.54 C464.89,713.83 464.85,714.00 466.77,714.00 C467.91,714.00 469.62,714.30 470.58,714.67 C471.89,715.17 472.13,714.98 471.54,713.92 C471.11,713.14 472.39,714.27 474.38,716.43 C476.37,718.59 478.00,720.73 478.00,721.18 C478.00,722.44 475.74,722.19 471.60,720.52 C463.07,716.93 454.16,711.32 445.74,704.38 L 445.74 704.38 C443.22,702.27 440.70,700.00 438.15,697.54 C430.30,689.96 423.36,681.61 417.29,672.41 C411.25,663.13 406.05,653.10 401.73,642.41 L 401.73 642.41 C399.26,636.23 397.06,629.76 395.10,622.98 C389.52,603.59 384.98,569.16 388.15,570.21 C389.33,570.61 390.13,572.36 391.65,577.87 C392.43,580.70 401.99,564.94 402.00,560.81 C402.00,559.88 402.45,558.84 403.00,558.50 C403.55,558.16 404.08,556.22 404.18,554.19 C404.27,552.16 404.67,556.80 405.06,564.50 C405.60,575.21 406.73,585.47 408.42,595.27 ZM 571.49 416.99 C578.52,421.78 585.39,427.57 591.30,433.96 C601.78,445.27 610.54,458.24 617.53,472.34 C620.20,477.74 622.64,483.37 624.84,489.16 L 624.84 489.17 C628.82,499.72 631.90,510.74 634.06,522.04 C636.10,534.06 637.88,555.33 636.42,552.25 C635.33,549.94 632.38,550.97 627.78,555.25 C624.84,557.98 622.95,560.72 622.49,562.91 C622.10,564.78 621.17,567.70 620.43,569.41 C619.18,572.26 619.07,571.70 619.02,562.00 C618.98,554.15 618.28,545.68 617.04,537.12 C616.67,532.23 615.97,528.89 614.65,523.05 C609.64,500.85 604.10,486.29 594.23,469.39 C590.43,462.89 586.03,456.72 581.27,451.13 C575.43,444.14 569.14,438.19 562.38,433.29 C560.00,431.57 557.24,429.89 554.46,428.41 C553.47,427.87 552.48,427.36 551.50,426.89 C550.24,426.28 549.06,425.77 547.95,425.35 C544.29,423.86 541.12,423.00 539.41,423.20 C536.79,423.51 536.32,423.32 537.17,422.29 C538.45,420.76 546.16,420.56 547.62,422.02 C548.19,422.59 550.64,423.22 553.07,423.44 C555.51,423.65 556.94,423.60 556.26,423.33 C554.19,422.51 556.67,419.16 560.54,417.55 C563.81,416.18 565.68,413.42 562.51,414.64 C561.66,414.96 560.75,414.53 560.41,413.63 C560.08,412.76 558.35,411.78 556.57,411.45 C554.79,411.11 552.02,409.77 550.42,408.46 C547.86,406.37 547.75,406.07 549.50,406.05 C551.61,406.02 557.78,408.91 567.08,414.28 C568.57,415.13 570.03,416.04 571.49,416.99 ZM 532.63 333.00 C527.65,324.61 513.17,304.50 512.10,304.50 C511.45,304.50 506.24,311.48 500.53,320.00 L 490.13 335.50 L 512.37 357.91 L 523.54 347.20 L 534.70 336.50 ZM 476.00 706.86 C476.00,705.79 471.85,704.03 470.79,704.65 C470.40,704.88 470.80,705.91 471.69,706.95 C473.25,708.77 476.00,708.72 476.00,706.86 Z" fill="rgb(226,201,126)"/>
<path d="M 0.00 512.00 L 0.00 0.00 L 512.00 0.00 L 1024.00 0.00 L 1024.00 512.00 L 1024.00 1024.00 L 512.00 1024.00 L 0.00 1024.00 L 0.00 512.00 ZM 554.00 866.46 C592.28,861.96 630.64,850.81 665.63,834.00 C691.14,821.75 714.45,807.27 735.50,790.60 C748.67,780.17 780.35,748.36 791.36,734.50 C817.48,701.65 838.29,663.23 851.48,623.50 C878.03,543.51 875.57,460.03 844.31,380.50 C826.15,334.30 800.52,295.53 763.99,259.01 C728.01,223.02 691.99,199.32 644.99,180.69 C615.86,169.14 590.99,162.89 554.00,157.82 C541.12,156.05 483.91,156.05 471.00,157.81 C422.28,164.47 385.30,175.75 347.01,195.65 C296.75,221.76 251.81,261.12 219.77,307.08 C205.06,328.18 188.94,358.11 179.69,381.50 C170.01,405.97 161.59,438.57 157.73,466.50 C154.86,487.31 154.65,533.81 157.34,554.50 C165.52,617.42 187.98,673.32 225.50,724.16 C259.74,770.55 303.65,807.04 355.18,831.94 C399.55,853.38 443.98,865.26 491.50,868.38 C503.41,869.16 540.79,868.01 554.00,866.46 Z" fill="rgb(254,254,254)"/>
</g>
</svg>